<svg id="Capa_1" enable-background="new 0 0 512 512" height="512" viewBox="0 0 512 512" width="512" xmlns="http://www.w3.org/2000/svg"><g><g><g><g><path d="m301.206 502h82.481c16.073-24.225 25.443-53.282 25.443-84.531 0-84.563-68.559-153.115-153.13-153.115s-153.13 68.552-153.13 153.115c0 31.249 9.37 60.306 25.443 84.531h82.48" fill="#f5eeec"/></g></g><g><g><g><path d="m138.458 89.346h235.084v49.434h-235.084z" fill="#99ebfa"/></g><g><path d="m341.234 89.346-19.164-79.346h-132.14l-19.164 79.346z" fill="#ccf5fc"/></g><g><g><g><path d="m155.389 138.78c-10.25 17.366-16.13 37.617-16.13 59.241 0 64.468 52.267 116.73 116.742 116.73s116.742-52.262 116.742-116.73c0-21.624-5.881-41.875-16.13-59.241z" fill="#faf7f5"/></g></g></g></g></g><g><ellipse cx="256" cy="384.648" fill="#ddb9a3" rx="24.058" ry="24.056"/></g><g><ellipse cx="256" cy="432.759" fill="#ddb9a3" rx="24.058" ry="24.056" transform="matrix(1 -.005 .005 1 -2.286 1.36)"/></g><g><g><g><g><path d="m154.619 270.596c30.746 19.782 65.863 29.702 100.994 29.738h.405c35.132-.036 70.249-9.956 100.994-29.738 1.445 13.583.21 54.143-2.832 64.772-61.744 31.385-134.984 31.385-196.729 0-3.041-10.628-4.277-51.182-2.832-64.772z" fill="#ff7b79"/></g></g></g></g></g><g><g><path d="m262.292 226.021h-12.584c-5.522 0-10-4.477-10-10s4.478-10 10-10h12.584c5.522 0 10 4.477 10 10s-4.478 10-10 10z"/></g><path d="m496.204 236.923c-3.905-3.904-10.236-3.906-14.142 0l-34.604 34.6v-29.276c0-5.523-4.478-10-10-10s-10 4.477-10 10v49.274l-35.64 35.637c-6.928-10.43-15.083-20.106-24.36-28.792.3-11.692.141-22.781-.502-28.828-.231-2.173-1.162-4.173-2.602-5.73 11.971-19.669 18.386-42.32 18.386-65.786 0-16.987-3.404-33.739-9.935-49.241h.735c5.522 0 10-4.477 10-10v-49.435c0-5.523-4.478-10-10-10h-24.435l-17.314-71.694c-1.085-4.489-5.103-7.652-9.721-7.652h-132.14c-4.618 0-8.636 3.163-9.721 7.652l-17.316 71.693h-24.435c-5.522 0-10 4.477-10 10v49.435c0 5.523 4.478 10 10 10h.735c-6.532 15.502-9.935 32.254-9.935 49.241 0 23.446 6.351 45.972 18.232 65.563-1.561 1.587-2.572 3.676-2.815 5.955-.649 6.105-.804 17.349-.492 29.163-8.661 8.159-16.338 17.189-22.944 26.893l-20.072-20.07v-48.985c0-5.523-4.478-10-10-10s-10 4.477-10 10v28.873c-.06-.022-.119-.043-.179-.064l-49.304-49.299c-3.904-3.905-10.237-3.905-14.142 0s-3.905 10.237.001 14.142l34.601 34.598h-29.277c-5.522 0-10 4.477-10 10s4.478 10 10 10h49.279l38.574 38.571c-11.596 22.743-17.851 48.134-17.851 74.109 0 32.187 9.375 63.329 27.11 90.06 1.854 2.792 4.981 4.471 8.333 4.471h82.48c5.522 0 10-4.477 10-10s-4.478-10-10-10h-76.997c-13.708-22.414-20.927-48.067-20.927-74.531 0-33.47 11.835-65.835 32.974-91.361.546 5.061 1.211 9.279 1.993 12.012.765 2.671 2.606 4.903 5.083 6.163 23.402 11.895 48.454 19.47 73.956 22.725-3.13 5.148-4.935 11.188-4.935 17.641 0 9.382 3.814 17.89 9.973 24.056-6.159 6.166-9.973 14.674-9.973 24.056 0 18.778 15.278 34.056 34.058 34.056s34.058-15.277 34.058-34.056c0-9.382-3.814-17.89-9.973-24.056 6.159-6.166 9.973-14.674 9.973-24.056 0-6.472-1.815-12.527-4.962-17.685 25.385-3.278 50.318-10.838 73.616-22.681 2.477-1.259 4.318-3.492 5.083-6.163.802-2.804 1.482-7.169 2.036-12.405 21.349 25.583 33.299 58.078 33.299 91.754 0 26.464-7.219 52.117-20.927 74.531h-76.997c-5.522 0-10 4.477-10 10s4.478 10 10 10h82.48c3.352 0 6.479-1.679 8.333-4.471 17.735-26.731 27.11-57.874 27.11-90.06 0-25.338-5.935-50.088-16.968-72.372l24.559-24.556h48.991c5.522 0 10-4.477 10-10s-4.478-10-10-10h-28.989l49.48-49.476c3.91-3.906 3.91-10.238.005-14.143zm-298.402-216.923h116.396l14.333 59.346h-145.062zm-49.344 79.346h215.084v29.435h-215.084zm202.269 49.434c7.874 15.132 12.014 32.04 12.014 49.241 0 27.234-10.258 53.165-28.89 73.019-.504.538-1.884 1.973-2.048 2.168-23.597 11.226-49.418 17.099-75.785 17.127h-.394c-26.149-.027-51.755-5.8-75.188-16.839-.222-.281-.46-.553-.716-.815-19.645-20.063-30.463-46.578-30.463-74.659 0-17.202 4.14-34.11 12.015-49.241h189.455zm-94.727 249.924c-7.751 0-14.058-6.305-14.058-14.056s6.307-14.056 14.058-14.056 14.058 6.305 14.058 14.056-6.307 14.056-14.058 14.056zm0 48.111c-7.751 0-14.058-6.305-14.058-14.056s6.307-14.056 14.058-14.056 14.058 6.305 14.058 14.056-6.307 14.056-14.058 14.056zm89.377-118.252c-56.434 27.055-122.688 27.055-179.121 0-1.37-9.073-2.218-26.878-2.24-40.912 28.177 14.85 59.519 22.65 91.599 22.684h.415c32.073-.033 63.41-7.832 91.588-22.684-.022 14.033-.87 31.837-2.241 40.912z"/><g><g><g><g><path d="m255.957 270.777c-10.508 0-21.017-3.984-29.017-11.953-3.912-3.898-3.925-10.229-.027-14.142 3.897-3.914 10.228-3.925 14.143-.028 8.217 8.186 21.585 8.185 29.802 0 3.913-3.897 10.246-3.886 14.142.027 3.898 3.913 3.887 10.244-.026 14.142-8 7.97-18.509 11.954-29.017 11.954z"/></g></g><g><g><g><path d="m304.216 205.956c-5.522 0-10-4.477-10-10v-13.039c0-5.523 4.478-10 10-10s10 4.477 10 10v13.039c0 5.523-4.478 10-10 10z"/></g></g><g><g><path d="m207.784 205.956c-5.522 0-10-4.477-10-10v-13.039c0-5.523 4.478-10 10-10s10 4.477 10 10v13.039c0 5.523-4.477 10-10 10z"/></g></g></g></g></g><g><g><path d="m255.819 512c-4.166 0-8.019-2.706-9.414-6.632-1.38-3.881-.203-8.325 2.946-10.99 3.288-2.782 8.081-3.117 11.741-.864 3.499 2.154 5.337 6.411 4.528 10.436-.928 4.612-5.085 8.05-9.801 8.05z"/></g></g></g></g></svg>