<svg height="512pt" viewBox="0 -4 512.00325 512" width="512pt" xmlns="http://www.w3.org/2000/svg"><path d="m167.511719 365.277344c-10.277344 5.910156-18.339844 15.019531-22.957031 25.941406l-9.726563 22.953125 47.53125 15.957031.597656.171875c.171875.085938.425781.171875.597657.257813l1.535156-3.585938c4.613281-10.894531 12.636718-20 22.867187-25.941406l30.464844-17.835938c-.363281-.507812-.675781-1.050781-.9375-1.621093l-20.222656-45.054688zm0 0"/><path d="m377.859375 339.761719-30.636719-14.25c-3.894531-1.996094-7.125-5.078125-9.300781-8.875-.980469.53125-2.050781.878906-3.15625 1.023437l-29.953125 3.753906 22.867188 51.457032 6.0625 2.816406c21.316406 9.933594 36.910156 29.082031 42.324218 51.96875l1.277344 5.546875c.15625-.09375.332031-.152344.515625-.171875l49.917969-9.042969-7.59375-32.257812c-5.414063-22.886719-21.007813-42.035157-42.324219-51.96875zm0 0"/><path d="m472.320312 32.648438c2.515626-8.796876.148438-18.265626-6.210937-24.839844-6.359375-6.578125-15.746094-9.261719-24.617187-7.042969-8.875 2.222656-15.894532 9.007813-18.40625 17.800781l-6.058594 19.714844 49.492187 14.847656zm0 0"/><path d="m212.804688 156.722656c1.621093 4.148438 6.183593 6.328125 10.429687 4.984375 17.40625-5.460937 61.4375-21.769531 83.300781-52.667969 2.101563-3.113281 1.878906-7.246093-.546875-10.113281-15.535156-19.863281-41.335937-28.6875-65.78125-22.492187 2.675781-6.464844 1.132813-13.910156-3.890625-18.78125-5.023437-4.867188-12.507812-6.179688-18.886718-3.308594-6.382813 2.875-10.359376 9.351562-10.042969 16.339844.320312 6.988281 4.871093 13.078125 11.488281 15.355468-23.152344 18.648438-12.160156 55.261719-6.070312 70.683594zm0 0"/><path d="m461.910156 69.597656h-.167968l-49.664063-14.933594h-.085937l-22.359376 72.703126c-4.402343 14.449218-14.132812 26.683593-27.21875 34.21875l-29.953124 17.324218-33.535157 16.808594-.511719.257812-.179687.09375c11.582031-7.070312 19.882813-18.449218 23.066406-31.640624 3.1875-13.191407 1-27.105469-6.078125-38.683594-25.941406 30.636718-68.777344 46.59375-86.867187 52.222656l-1.027344.257812c12.722656 21.933594 39.617187 31.203126 63.148437 21.761719l-.511718.253907c-.171875.085937-.257813.085937-.425782.171874l-64.34375 32.085938c-16.382812 8.183594-23.386718 27.839844-15.871093 44.542969l21.078125 46.761719c0 .085937-.085938.085937-.085938.171874l22.699219 50.601563v.085937l.171875-.085937 35.667969 79.53125c4.320312 9.714844 13.859375 16.0625 24.488281 16.296875 2.976562 0 5.929688-.546875 8.707031-1.621094 6.550781-2.539062 11.769531-7.664062 14.433594-14.167968 2.660156-6.5 2.535156-13.8125-.355469-20.21875l-29.953125-66.648438v-.082031l-1.277343-2.902344-1.28125-2.816406h.085937v-.085938l-16.726563-38.230469-6.996093-16.042968-8.960938-20.394532c-.9375-2.054687-1-4.402343-.183593-6.507812.820312-2.101562 2.457031-3.789062 4.535156-4.667969 4.3125-1.882812 9.335937.058594 11.265625 4.351563l10.921875 24.660156 35.074218-4.351562h.339844c-.140625-.671876-.199218-1.359376-.171875-2.046876v-51.199218c.007813-6.09375 3.257813-11.71875 8.535157-14.765625l58.964843-33.875c19.28125-11.089844 33.460938-29.285157 39.507813-50.6875zm0 0"/><path d="m503.46875 452.230469c-4.714844 0-8.535156 3.820312-8.535156 8.535156.085937 7.226563-2.90625 14.148437-8.230469 19.03125-5.328125 4.886719-12.480469 7.273437-19.671875 6.566406-3.414062-.59375-18.003906-2.984375-40.277344-5.800781 7.449219-6.746094 10.566406-17.050781 8.105469-26.792969l-3.15625-13.226562c-.085937 0-.257813.082031-.339844.082031l-50.09375 9.132812 4.097657 17.152344c.800781 3.472656 2.34375 6.734375 4.523437 9.554688-22.445313-2.300782-48.554687-4.4375-76.546875-5.714844-18.515625-.941406-37.714844-1.453125-57.34375-1.453125-32 0-63.230469 1.453125-91.304688 3.414063 1.527344-1.816407 2.765626-3.859376 3.667969-6.058594l8.621094-20.394532-48.128906-16.042968c-.171875-.085938-.425781-.167969-.597657-.253906l-6.570312 15.53125c-4.550781 10.394531-2.132812 22.523437 6.058594 30.375-45.570313 4.4375-77.484375 9.558593-82.773438 10.496093-7.191406.707031-14.34375-1.679687-19.671875-6.566406-5.324219-4.882813-8.316406-11.804687-8.234375-19.03125 0-4.714844-3.820312-8.535156-8.53125-8.535156-4.714844 0-8.535156 3.820312-8.535156 8.535156-.101562 11.875 4.777344 23.253906 13.457031 31.363281 8.675781 8.109375 20.355469 12.207032 32.199219 11.304688.484375.011718.96875-.015625 1.449219-.085938 69.105469-10.898437 138.9375-16.574218 208.894531-16.984375 69.960938.410157 139.789062 6.085938 208.898438 16.984375.480468.070313.964843.097656 1.449218.085938 11.84375.902344 23.523438-3.195313 32.199219-11.304688 8.679687-8.109375 13.558594-19.488281 13.453125-31.363281 0-4.714844-3.820312-8.535156-8.53125-8.535156zm0 0"/></svg>